<?xml version="1.0" standalone="no"?>
<!DOCTYPE svg PUBLIC "-//W3C//DTD SVG 20010904//EN"
 "http://www.w3.org/TR/2001/REC-SVG-20010904/DTD/svg10.dtd">
<svg version="1.0" xmlns="http://www.w3.org/2000/svg"
 width="912.000000pt" height="912.000000pt" viewBox="0 0 912.000000 912.000000"
 preserveAspectRatio="xMidYMid meet">
<metadata>
Created by potrace 1.11, written by Peter Selinger 2001-2013
</metadata>
<g transform="translate(0.000000,912.000000) scale(0.100000,-0.100000)"
fill="#000000" stroke="none">
<path d="M2797 9114 c-1 -1 -35 -5 -76 -8 -41 -4 -84 -9 -95 -11 -12 -3 -34
-7 -51 -10 -78 -11 -148 -27 -260 -61 -33 -10 -63 -17 -67 -16 -5 1 -8 -3 -8
-10 0 -6 -3 -9 -6 -5 -4 3 -19 0 -35 -9 -16 -8 -29 -12 -29 -8 0 3 -11 -1 -25
-10 -14 -9 -25 -14 -25 -12 0 3 -53 -22 -117 -55 -128 -65 -142 -73 -190 -106
-17 -13 -34 -23 -38 -23 -35 0 -425 -347 -425 -378 0 -7 -7 -12 -15 -12 -8 0
-15 -6 -15 -14 0 -8 -4 -16 -8 -18 -13 -5 -122 -154 -122 -166 0 -7 -4 -12
-10 -12 -5 0 -10 -6 -10 -14 0 -7 -7 -19 -15 -26 -8 -7 -21 -24 -28 -39 -52
-100 -107 -211 -120 -241 -23 -55 -39 -99 -38 -105 1 -3 -5 -18 -13 -34 -8
-15 -17 -39 -20 -52 -3 -13 -12 -46 -21 -74 -8 -27 -18 -63 -21 -80 -8 -42
-12 -60 -14 -60 -1 0 -3 -18 -6 -40 -2 -22 -7 -47 -10 -55 -3 -8 -8 -49 -12
-90 -9 -98 -8 -5362 0 -5417 42 -259 84 -412 160 -583 35 -79 82 -175 89 -180
3 -3 8 -12 12 -20 4 -8 18 -33 32 -55 14 -22 30 -50 37 -62 6 -13 15 -23 20
-23 4 0 8 -4 8 -10 0 -37 336 -411 353 -393 4 3 7 2 7 -4 0 -15 139 -120 250
-190 83 -52 256 -144 285 -152 6 -2 24 -8 40 -15 58 -24 240 -83 275 -90 8 -2
26 -6 40 -9 23 -6 40 -10 108 -22 119 -22 180 -27 332 -28 120 -1 277 8 323
18 12 2 38 7 57 10 90 14 129 23 198 44 17 5 32 7 32 4 0 -3 7 0 15 7 8 7 15
9 15 4 0 -4 5 -3 12 4 7 7 21 12 33 12 12 0 25 4 30 9 6 5 28 14 50 21 22 7
82 32 133 56 52 24 98 44 103 44 5 0 9 5 9 10 0 6 6 10 13 10 7 0 54 27 105
60 51 33 97 60 103 60 5 0 9 3 9 8 0 4 17 18 37 32 20 14 41 30 47 35 6 6 36
28 66 50 30 22 57 42 60 45 9 9 361 275 378 285 9 6 19 12 22 15 7 8 236 181
270 205 16 11 91 67 167 125 149 112 144 108 188 143 24 19 253 191 399 300
35 27 97 74 111 85 6 4 91 68 190 142 99 74 182 137 185 140 3 3 21 17 40 30
19 14 42 30 50 37 8 7 114 87 235 178 121 91 229 172 240 181 70 54 256 193
285 214 19 13 39 30 43 37 4 7 14 13 22 13 7 0 15 3 17 8 2 4 68 56 148 116
80 60 170 130 200 155 79 65 219 206 275 276 26 33 51 62 54 65 7 5 105 154
139 210 44 72 146 291 157 335 1 6 8 24 14 40 7 17 14 37 16 45 2 8 13 49 24
90 21 76 45 194 58 285 8 60 8 455 0 505 -4 19 -9 53 -12 76 -10 72 -15 97
-36 179 -24 95 -73 241 -101 304 -56 126 -82 178 -96 194 -8 9 -12 17 -9 17 7
0 -116 195 -139 220 -8 8 -37 44 -66 80 -116 145 -242 261 -463 424 -44 33
-85 64 -90 70 -6 6 -18 16 -27 21 -9 6 -178 132 -375 280 -197 149 -515 390
-708 535 -192 145 -351 267 -353 272 -2 4 -8 8 -13 8 -9 0 -84 54 -99 70 -3 3
-21 17 -40 30 -19 14 -42 30 -50 37 -8 7 -33 26 -55 42 -22 17 -44 34 -50 39
-16 12 -100 75 -131 97 -15 11 -39 29 -53 41 -14 11 -136 103 -271 204 -135
102 -249 188 -255 193 -5 4 -55 42 -110 83 -55 41 -107 80 -115 87 -9 6 -79
59 -155 117 -77 57 -141 108 -143 112 -2 5 -9 8 -15 8 -6 0 -22 11 -36 24 -35
32 -194 137 -261 172 -30 16 -57 32 -60 35 -5 5 -31 18 -142 68 -51 22 -253
92 -278 96 -8 1 -22 5 -30 8 -8 3 -42 10 -75 17 -33 6 -67 13 -75 15 -22 4
-108 16 -160 22 -44 4 -329 10 -333 7z m303 -809 c19 -3 46 -8 60 -10 14 -2
36 -7 50 -10 14 -3 35 -8 48 -11 33 -7 128 -42 192 -71 108 -48 217 -121 435
-288 11 -9 31 -24 44 -33 13 -9 38 -29 56 -44 18 -16 37 -28 43 -28 6 0 12 -4
14 -8 3 -9 445 -344 463 -351 5 -2 15 -9 21 -15 20 -19 47 -40 84 -66 19 -13
37 -27 40 -30 3 -3 106 -81 230 -173 124 -93 239 -179 255 -191 23 -18 222
-168 290 -218 6 -4 26 -21 46 -38 20 -16 40 -30 43 -30 4 0 12 -5 19 -10 7 -6
28 -24 47 -40 19 -16 38 -30 42 -30 4 0 13 -6 20 -13 7 -7 31 -26 53 -42 22
-17 46 -36 53 -42 7 -7 16 -13 20 -13 4 0 21 -14 39 -30 18 -17 35 -30 38 -30
4 0 12 -6 20 -12 7 -7 25 -22 41 -33 15 -11 86 -64 158 -118 72 -54 144 -108
160 -120 33 -24 135 -102 151 -114 112 -87 297 -223 304 -223 5 0 11 -4 13 -9
3 -8 123 -101 213 -166 156 -112 278 -235 367 -370 110 -167 177 -349 204
-550 11 -79 8 -284 -5 -355 -6 -36 -14 -78 -16 -95 -11 -56 -66 -209 -105
-286 -49 -99 -115 -197 -188 -279 -48 -56 -78 -84 -175 -165 -7 -5 -39 -30
-72 -55 -33 -25 -64 -49 -70 -53 -5 -4 -91 -69 -190 -143 -230 -173 -291 -219
-320 -242 -5 -4 -26 -18 -45 -32 -19 -13 -37 -27 -40 -30 -7 -8 -358 -272
-378 -285 -10 -5 -19 -13 -22 -16 -3 -3 -61 -48 -130 -99 -69 -52 -134 -103
-144 -112 -11 -10 -23 -18 -27 -18 -4 0 -14 -6 -21 -13 -7 -6 -31 -25 -53 -41
-22 -17 -42 -33 -45 -36 -3 -3 -34 -27 -70 -53 -36 -26 -76 -55 -90 -66 -48
-37 -219 -166 -246 -186 -31 -23 -174 -131 -189 -143 -5 -4 -37 -28 -70 -52
-33 -24 -62 -46 -65 -50 -3 -3 -30 -23 -60 -45 -30 -22 -57 -42 -60 -45 -3 -3
-21 -17 -40 -30 -19 -13 -37 -27 -40 -30 -3 -3 -30 -23 -60 -45 -30 -22 -57
-42 -60 -45 -3 -3 -52 -40 -110 -83 -58 -43 -112 -83 -120 -90 -8 -7 -33 -26
-55 -42 -22 -17 -44 -33 -50 -38 -15 -12 -117 -89 -155 -117 -19 -14 -55 -42
-82 -63 -26 -20 -52 -37 -58 -37 -5 0 -10 -4 -10 -8 0 -5 -26 -26 -57 -48 -32
-21 -60 -42 -63 -45 -13 -18 -204 -110 -285 -137 -96 -33 -115 -37 -239 -56
-83 -12 -255 -13 -340 -2 -50 7 -198 41 -226 53 -8 3 -17 7 -20 8 -114 39
-267 121 -370 198 -67 50 -227 212 -235 238 -4 10 -10 19 -15 19 -20 0 -141
228 -179 338 -12 34 -23 73 -25 85 -3 12 -5 23 -7 25 -3 3 -5 13 -14 72 -5 30
-10 60 -11 65 -1 6 -3 12 -4 15 -7 14 -5 5167 2 5240 9 95 32 206 53 256 8 19
12 34 10 34 -9 0 69 168 109 235 35 57 30 51 93 130 93 118 186 203 303 277
124 78 297 157 380 171 14 3 44 10 68 16 24 7 69 14 100 17 31 3 58 7 60 8 5
6 236 -2 272 -9z"/>
</g>
</svg>
