<svg id="レイヤー_1" data-name="レイヤー 1" xmlns="http://www.w3.org/2000/svg" viewBox="0 0 46.42 56.86"><defs><clipPath id="clip-path"><path class="cls-1" d="M41.42 28.43A8 8 0 0038.24 22L17.82 6.64a7.86 7.86 0 00-8.39-.78A7.87 7.87 0 005 13v30.83A7.87 7.87 0 009.43 51a7.86 7.86 0 008.39-.78l20.42-15.4a8 8 0 003.18-6.39m5 0a12.94 12.94 0 01-5.17 10.38l-20.42 15.4A13 13 0 010 43.83V13A13 13 0 0120.83 2.65l20.42 15.4a12.94 12.94 0 015.17 10.38z"/></clipPath><style>.cls-1{fill:#fff}</style></defs><path class="cls-1" d="M41.42 28.43A8 8 0 0038.24 22L17.82 6.64a7.86 7.86 0 00-8.39-.78A7.87 7.87 0 005 13v30.83A7.87 7.87 0 009.43 51a7.86 7.86 0 008.39-.78l20.42-15.4a8 8 0 003.18-6.39m5 0a12.94 12.94 0 01-5.17 10.38l-20.42 15.4A13 13 0 010 43.83V13A13 13 0 0120.83 2.65l20.42 15.4a12.94 12.94 0 015.17 10.38z"/><g clip-path="url(#clip-path)"><path class="cls-1" d="M41.25 18.05a13 13 0 010 20.76l-20.42 15.4A13 13 0 010 43.83V13A13 13 0 0120.83 2.65z"/></g></svg>