<svg xmlns="http://www.w3.org/2000/svg" width="190" height="190" viewBox="0 0 190 190"><defs><style>.cls-1{fill:#bababa;}.cls-2{fill:#fff;}</style></defs><g id="db"><circle class="cls-1" cx="95" cy="95" r="95"/><path class="cls-2" d="M94.72,35.3c-28.21,0-49.48,11.61-49.48,27v66.32c0,15.4,21.27,27,49.48,27s49.48-11.6,49.48-27V62.31C144.2,46.91,122.93,35.3,94.72,35.3ZM127.15,83c.18-.08.33-.17.5-.25,1-.49,2.08-1,3.06-1.54V95.36c0,6.06-13.69,14.51-36,14.51s-36-8.45-36-14.51V81.18c8.88,5.06,21.51,8.13,36,8.13,12.51,0,23.62-2.3,32.15-6.19C127,83.08,127.06,83.05,127.15,83ZM58.74,114.23c8.88,5.06,21.51,8.13,36,8.13,12.55,0,23.7-2.32,32.24-6.22l.18-.08.61-.31c1-.48,2-1,3-1.49v14.37c0,6.06-13.69,14.51-36,14.51s-36-8.45-36-14.51Zm36-37.41c-22.29,0-36-8.45-36-14.51s13.69-14.51,36-14.51,36,8.45,36,14.51S117,76.82,94.72,76.82Z"/></g></svg>