<svg id="レイヤー_1" data-name="レイヤー 1" xmlns="http://www.w3.org/2000/svg" xmlns:xlink="http://www.w3.org/1999/xlink" viewBox="0 0 46.42 56.86"><defs><style>.cls-1{fill:#fff;}.cls-2{clip-path:url(#clip-path);}</style><clipPath id="clip-path"><path class="cls-1" d="M41.42,28.43A8,8,0,0,0,38.24,22L17.82,6.64a7.86,7.86,0,0,0-8.39-.78A7.87,7.87,0,0,0,5,13V43.83A7.87,7.87,0,0,0,9.43,51a7.86,7.86,0,0,0,8.39-.78l20.42-15.4a8,8,0,0,0,3.18-6.39m5,0a12.94,12.94,0,0,1-5.17,10.38L20.83,54.21A13,13,0,0,1,0,43.83V13A13,13,0,0,1,20.83,2.65l20.42,15.4A12.94,12.94,0,0,1,46.42,28.43Z"/></clipPath></defs><path class="cls-1" d="M41.42,28.43A8,8,0,0,0,38.24,22L17.82,6.64a7.86,7.86,0,0,0-8.39-.78A7.87,7.87,0,0,0,5,13V43.83A7.87,7.87,0,0,0,9.43,51a7.86,7.86,0,0,0,8.39-.78l20.42-15.4a8,8,0,0,0,3.18-6.39m5,0a12.94,12.94,0,0,1-5.17,10.38L20.83,54.21A13,13,0,0,1,0,43.83V13A13,13,0,0,1,20.83,2.65l20.42,15.4A12.94,12.94,0,0,1,46.42,28.43Z"/><g class="cls-2"><path class="cls-1" d="M41.25,18.05a13,13,0,0,1,0,20.76L20.83,54.21A13,13,0,0,1,0,43.83V13A13,13,0,0,1,20.83,2.65Z"/></g></svg>